├É┼╛├æ┬ü├æΓÇÜ├æΓé¼├É┬╛├É┬▓ ├æ┬ü├É┬╛├É┬║├æΓé¼├É┬╛├É┬▓├É┬╕├æΓÇ░ (├É┬╝├æ╞Æ├É┬╗├æ┼Æ├æΓÇÜ├æΓÇ₧├É┬╕├É┬╗├æ┼Æ├É┬╝, 1988) 

├É┬ú├É┬╗├æ╞Æ├æΓÇí├æ╦å├É┬╡├É┬╜├É┬╜├É┬╛├É┬╡ ├É┬║├É┬░├æΓÇí├É┬╡├æ┬ü├æΓÇÜ├É┬▓├É┬╛ ├É┬╕├É┬╖├É┬╛├É┬▒├æΓé¼├É┬░├É┬╢├É┬╡├É┬╜├É┬╕├æ┬Å ├æΓÇá├É┬▓├É┬╡├æΓÇÜ├É┬░ ├É┬╕ ├É┬╖├É┬▓├æ╞Æ├É┬║├É┬░!!! 
http://en.wikipedia.org/wiki/Treasure_Island_%281988_animated_film%29

Video: DivX 5 720x544 25.00fps [Stream 00]
Audio: Dolby AC3 48000Hz 6ch 448kbps [Stream 01]

Video
ID                               : 0
Format                           : MPEG-4 Visual
Format settings, BVOP            : Yes
Format settings, QPel            : No
Format settings, GMC             : No warppoints
Format settings, Matrix          : Default (H.263)
Muxing mode                      : Packed bitstream
Codec ID                         : DX50
Codec ID/Hint                    : DivX 5
Duration                         : 1h 46mn
Bit rate                         : 1 500 Kbps
Width                            : 720 pixels
Height                           : 544 pixels
Display aspect ratio             : 4:3
Frame rate                       : 25.000 fps
Resolution                       : 8 bits
Colorimetry                      : 4:2:0
Scan type                        : Progressive
Bits/(Pixel*Frame)               : 0.153
Stream size                      : 1.12 GiB (77%)
Writing library                  : DivX 6.2.2 (UTC 2006-04-26)

Audio
ID                               : 1
Format                           : AC-3
Format/Info                      : Audio Coding 3
Format_Settings_ModeExtension    : CM (complete main)
Codec ID                         : 2000
Duration                         : 1h 46mn
Bit rate mode                    : Constant
Bit rate                         : 448 Kbps
Channel(s)                       : 6 channels
Channel positions                : Front: L C R, Side: L R, LFE
Sampling rate                    : 48.0 KHz
Video delay                      : 294ms
Stream size                      : 342 MiB (23%)
Alignment                        : Split accross interleaves
Interleave, duration             : 96 ms (2.40 video frames)
Interleave, preload duration     : 96 ms
